<svg xmlns="http://www.w3.org/2000/svg" version="1.1" viewBox="-5.0 -10.0 110.0 135.0">
 <path d="m77.711 32.461-4.7656 0.011718c0.35938 0.8125 0.64063 1.7969 0.85938 2.9258 0.007812 0.027343 0.011718 0.050781 0.015624 0.078124 0.18359 0.94922 0.32031 2.0039 0.42969 3.1484 0.015625 0.15234 0.027344 0.30469 0.039062 0.46094 0.003907 0.023437 0.007813 0.046874 0.007813 0.070312 0.10156 1.2305 0.16797 2.5625 0.21094 3.9805v0.035156 0.011719c0.042969 1.4453 0.0625 2.9805 0.066407 4.5938 0.35547-0.44141 0.77344-0.98828 1.1406-1.4648 0.39844-0.51953 0.73828-0.96484 0.91406-1.1523l0.019532-0.023437c0.15234-0.16797 0.41406-0.17578 0.57812-0.023438 0.007813 0.003907 1.5234 1.3945 2.5703 2.6484-0.019531-1.125-0.058594-2.7578-0.15234-4.5508 0-0.011719-0.003906-0.023438-0.003906-0.035157-0.066406-1.2812-0.15625-2.6406-0.28516-3.9531-0.003907-0.015625-0.003907-0.03125-0.003907-0.046875-0.074218-0.76562-0.16016-1.5156-0.26172-2.2227-0.066406-0.45703-0.13672-0.89453-0.21094-1.3086-0.011718-0.035156-0.019531-0.074219-0.019531-0.11328-0.30078-1.6172-0.67969-2.8047-1.1562-3.0742zm-4.2734 6.2852h-61.871c0.31641-0.93359 0.57422-1.875 0.77344-2.8203h60.73c0.14844 0.84375 0.26953 1.7695 0.35938 2.7734l0.003906 0.046875zm0.23438 4.0156h-61.332c-0.20703-1.0586-0.47266-2.1211-0.79688-3.1914h61.965c0.074219 0.99609 0.12891 2.0625 0.16797 3.1914zm6.8203 0.82031h0.070312c0.17578 0 0.51953-0.003906 0.85156-0.007812 2.4453-0.035157 4.2578-0.058594 4.2578 3.1875l-0.003906 3.5977c0 2.1992-1.3398 2.4297-3.2656 2.4297-0.26953 0-0.55469-0.003906-0.84766-0.007812-0.37109-0.007812-0.75391-0.011719-0.99609-0.011719l-68.059-0.003906c0.26953-1.5234 0.39844-3.0586 0.39453-4.6133-0.007812-1.5117-0.14453-3.0352-0.40234-4.5703h61.211c0.042969 1.6484 0.058594 3.4141 0.058594 5.2812h0.003906c0 0.097657 0.035156 0.19141 0.10156 0.26953 0.14844 0.16797 0.41016 0.18359 0.57812 0.035157 0.35938-0.31641 1.2383-1.4609 1.9297-2.3633 0.24609-0.32031 0.46875-0.60938 0.61719-0.80469 0.6875 0.65234 2.3203 2.2461 2.8672 3.207 0.066406 0.14062 0.20703 0.23828 0.37109 0.23828 0.22656 0 0.41016-0.18359 0.41016-0.41016 0-0.74219-0.023437-2.9023-0.14453-5.4531zm-0.26953-4.0156h4.1133c1.5234 0 2.9062 0.62109 3.9102 1.6289 1.0039 1.0039 1.6289 2.3867 1.6289 3.9102v5.7656c0 1.5234-0.62109 2.9062-1.6289 3.9102-1.0039 1.0039-2.3867 1.6289-3.9102 1.6289h-72.77c0.31641-0.93359 0.57422-1.875 0.77344-2.8203h68.223c0.43359 0 0.71484 0.003906 0.98047 0.007812 0.29297 0.003906 0.57812 0.007813 0.85938 0.007813 2.4062 0.003906 4.082-0.30469 4.0859-3.2461l0.003907-3.5977c0.003906-4.0742-2.1602-4.0469-5.0859-4.0078-0.21875 0.003906-0.4375 0.007813-0.84375 0.007813h-0.10938c-0.058594-1.0391-0.13281-2.1289-0.22656-3.1914zm-0.45312-3.6406h0.79297c0.43359 0 0.71484 0.003907 0.98047 0.007813 0.29297 0.003906 0.57812 0.007812 0.85938 0.007812 2.4062 0.003906 4.082-0.30469 4.0859-3.2461l0.003907-3.5977c0.003906-4.0742-2.1602-4.0469-5.0859-4.0078-0.21875 0.003906-0.4375 0.007812-0.84375 0.007812h-68.223c-0.20703-1.0586-0.47266-2.1211-0.79688-3.1914h72.793c1.5234 0 2.9062 0.62109 3.9102 1.6289 1.0039 1.0039 1.6289 2.3867 1.6289 3.9102v5.7656c0 1.5234-0.62109 2.9062-1.6289 3.9102-1.0039 1.0039-2.3867 1.6289-3.9102 1.6289h-4.1953c-0.066406-0.65625-0.14453-1.2969-0.23047-1.9102-0.042968-0.3125-0.09375-0.61719-0.14453-0.91016zm-7.4531-4.2734c-0.074218-0.003906-0.15234 0.011718-0.22266 0.050781-0.19922 0.10938-0.26953 0.35938-0.16016 0.55859 0.41016 0.74609 0.73047 1.7031 0.98047 2.8438h-60.414c0.26953-1.5234 0.39844-3.0586 0.39453-4.6133-0.007812-1.5117-0.14453-3.0352-0.40234-4.5703h68.07c0.17578 0 0.51953-0.003906 0.85156-0.007813 2.4453-0.035156 4.2578-0.058593 4.2578 3.1875l-0.003906 3.5977c0 2.1992-1.3398 2.4297-3.2656 2.4297-0.26953 0-0.55469-0.003906-0.84766-0.007812-0.37109-0.007813-0.75391-0.011719-0.99609-0.011719h-0.94922c-0.37891-1.8125-0.91016-3.1367-1.6562-3.4336-0.046875-0.019531-0.097656-0.027343-0.15234-0.027343l-5.4883 0.015624zm-55.637 39.59c-0.83594-0.050782-1.5508-0.19922-2.1016-0.59375-0.67578-0.48047-1.0625-1.2812-1.0625-2.6289l-0.003906-3.5977c-0.003907-4.0742 2.1602-4.0469 5.0859-4.0078 0.21875 0.003907 0.4375 0.007813 0.84375 0.007813h68.223c0.20703-1.0586 0.47266-2.1211 0.79688-3.1914h-72.801c-1.5234 0-2.9062 0.62109-3.9102 1.6289-1.0039 1.0039-1.6289 2.3867-1.6289 3.9102v5.7656c0 1.5234 0.62109 2.9062 1.6289 3.9102 1.0039 1.0039 2.3867 1.6289 3.9102 1.6289h0.74219c0.066406-0.92578 0.15625-1.8906 0.27344-2.8242zm6.8125-0.81641c0.26562-1.8984 0.70312-3.3984 1.4023-4.4023 0.12891-0.18359 0.085938-0.44141-0.10156-0.57031-0.070313-0.050781-0.15234-0.074219-0.23438-0.074219l-5.5156-0.011718c-0.042969 0-0.082031 0.007812-0.12109 0.019531-0.98047 0.30859-1.5977 2.0039-1.9844 4.1328-0.054688 0.29688-0.10156 0.59766-0.14844 0.91016-0.72266-0.039063-1.3203-0.15234-1.7383-0.44922-0.45703-0.32422-0.71875-0.91797-0.71875-1.9609l-0.003906-3.5977c-0.003906-3.2461 1.8086-3.2227 4.2578-3.1875 0.33594 0.003906 0.67969 0.007813 0.85156 0.007813h68.07c-0.26172 1.5352-0.39453 3.0625-0.40234 4.5703-0.007813 1.5547 0.12109 3.0898 0.39453 4.6133h-64.012zm-0.3125 3.6406c0.046874-1.0078 0.11328-1.9492 0.21094-2.8203h64.273c0.20313 0.94531 0.46094 1.8867 0.77344 2.8203l-65.258 0.003906zm-0.83984 0.40625c-0.042969 1.1367-0.0625 2.3477-0.070313 3.6172-0.35938-0.35156-0.79297-0.79688-1.1719-1.1836-0.41016-0.42188-0.76172-0.78125-0.93359-0.92188-0.015624-0.015625-0.03125-0.027344-0.050781-0.039063-0.007812-0.007812-0.019531-0.011718-0.023437-0.015624-0.13281-0.074219-0.30469-0.066407-0.4375 0.027343-0.007813 0.003907-1.5547 1.1211-2.6094 2.1172 0.019531-0.88672 0.058593-2.1562 0.15234-3.5469 0.003907-0.015625 0.003907-0.035156 0.003907-0.050782 0.078125-1.1602 0.1875-2.4023 0.34766-3.5664v-0.011718c0.058594-0.42578 0.12109-0.83984 0.19531-1.2383 0.32422-1.8008 0.77344-3.2227 1.3711-3.4727l4.7188 0.007812c-0.60938 1.1602-0.98438 2.707-1.2188 4.5703-0.003906 0.011719-0.003906 0.023437-0.003906 0.035156l-0.015625 0.12891c-0.12891 1.0742-0.20703 2.25-0.25781 3.5156v0.023438z" fill-rule="evenodd"/>
<text x="0.0" y="117.5" font-size="5.0" font-weight="bold" font-family="Arbeit Regular, Helvetica, Arial-Unicode, Arial, Sans-serif" fill="#000000">Created by Ar2ar</text><text x="0.0" y="122.5" font-size="5.0" font-weight="bold" font-family="Arbeit Regular, Helvetica, Arial-Unicode, Arial, Sans-serif" fill="#000000">from Noun Project</text></svg>